<svg xmlns="http://www.w3.org/2000/svg" width="140" height="140" viewBox="0 0 140 140">
  <g id="Group_31184" data-name="Group 31184" transform="translate(-172 -282)">
    <circle id="Ellipse_215" data-name="Ellipse 215" cx="70" cy="70" r="70" transform="translate(172 282)" fill="#ff9a33" opacity="0.2"/>
    <g id="_36_Upload_foto" data-name="36 Upload foto" transform="translate(214.517 330.452)">
      <path id="Path_13073" data-name="Path 13073" d="M34.083,43.036H8.006V33.288l5.911-6.813a3.124,3.124,0,0,1,4.756.075l5.089,6.268L33.4,21.147a3.132,3.132,0,0,1,4.785,0l6.95,8.413A15.023,15.023,0,0,0,34.083,43.036ZM24.212,14.525a4,4,0,1,0,4,4,4,4,0,0,0-4-4Zm9.871,30.513H7.005a1,1,0,0,1-1-1V12.005a1,1,0,0,1,1-1H49.048a1,1,0,0,1,1,1V29.073a14.89,14.89,0,0,1,4,.825V10a3.006,3.006,0,0,0-3-3H5a3.006,3.006,0,0,0-3,3V46.039a3.006,3.006,0,0,0,3,3H34.908a14.889,14.889,0,0,1-.825-4ZM49.048,31.024A13.013,13.013,0,1,0,62.061,44.037,13.013,13.013,0,0,0,49.048,31.024Zm5.005,13.013h-2v8.008a1,1,0,0,1-1,1h-4a1,1,0,0,1-1-1V44.013l-1.99.024a1,1,0,0,1-.827-1.583l5.005-7.007a1.039,1.039,0,0,1,1.63,0l5.005,7.007a1.008,1.008,0,0,1-.815,1.583Z" transform="translate(-2 -7)" fill="#ff9a33"/>
    </g>
  </g>
</svg>
