<svg xmlns="http://www.w3.org/2000/svg" width="1016" height="551" viewBox="0 0 1016 551">
  <g id="Group_31981" data-name="Group 31981" transform="translate(-142 -335.899)">
    <g id="Rectangle_2655" data-name="Rectangle 2655" transform="translate(142 335.899)" fill="#fff" stroke="#ff9a33" stroke-width="0.7" stroke-dasharray="6">
      <rect width="1016" height="551" stroke="none"/>
      <rect x="0.35" y="0.35" width="1015.3" height="550.3" fill="none"/>
    </g>
    <g id="Group_31145" data-name="Group 31145" transform="translate(233 240.039)">
      <text id="Click_to_upload_PDF_PPT_file" data-name="Click to upload PDF/PPT file" transform="translate(311 420)" fill="#ff9a33" font-size="14" font-family="Gotham-Medium, Gotham" font-weight="500" letter-spacing="0.03em"><tspan x="0" y="0">Click to upload PDF/PPT file</tspan></text>
      <g id="_36_Upload_foto" data-name="36 Upload foto" transform="translate(373 313.86)" opacity="0.29">
        <path id="Path_13073" data-name="Path 13073" d="M47.05,57.6H10.434V43.913l8.3-9.567a4.387,4.387,0,0,1,6.679.106l7.146,8.8L46.092,26.865a4.4,4.4,0,0,1,6.719,0L62.57,38.674A21.1,21.1,0,0,0,47.05,57.6ZM33.19,17.567a5.622,5.622,0,1,0,5.622,5.622,5.622,5.622,0,0,0-5.622-5.622ZM47.05,60.412H9.028a1.406,1.406,0,0,1-1.406-1.406V14.028a1.406,1.406,0,0,1,1.406-1.406H68.063a1.406,1.406,0,0,1,1.406,1.406V37.994a20.908,20.908,0,0,1,5.622,1.159V11.217A4.221,4.221,0,0,0,70.874,7H6.217A4.221,4.221,0,0,0,2,11.217v50.6a4.221,4.221,0,0,0,4.217,4.217H48.209a20.907,20.907,0,0,1-1.159-5.622ZM68.063,40.734A18.273,18.273,0,1,0,86.335,59.007,18.273,18.273,0,0,0,68.063,40.734ZM75.09,59.007H72.279V70.251a1.406,1.406,0,0,1-1.406,1.406H65.251a1.406,1.406,0,0,1-1.406-1.406V58.972l-2.794.034a1.409,1.409,0,0,1-1.161-2.222l7.028-9.839a1.459,1.459,0,0,1,2.288,0l7.028,9.839a1.415,1.415,0,0,1-1.144,2.222Z" transform="translate(0 0)" fill="#ff9a33"/>
      </g>
    </g>
  </g>
</svg>
