<svg xmlns="http://www.w3.org/2000/svg" xmlns:xlink="http://www.w3.org/1999/xlink" width="428" height="826" viewBox="0 0 428 826">
  <defs>
    <clipPath id="clip-path">
      <rect id="Rectangle_1239" data-name="Rectangle 1239" width="337" height="227.735" transform="translate(0 0)" fill="none"/>
    </clipPath>
    <clipPath id="clip-path-2">
      <rect id="Rectangle_1236" data-name="Rectangle 1236" width="358.127" height="286.287" fill="none"/>
    </clipPath>
    <clipPath id="clip-path-3">
      <rect id="Rectangle_1238" data-name="Rectangle 1238" width="454.174" height="361.668" fill="none"/>
    </clipPath>
  </defs>
  <g id="Group_32854" data-name="Group 32854" transform="translate(0 -100)">
    <path id="Path_13338" data-name="Path 13338" d="M0,0H428V826H0Z" transform="translate(0 100)" fill="#fff5ea"/>
    <g id="Group_31932" data-name="Group 31932" transform="translate(3199 1994.01)">
      <g id="Group_4837" data-name="Group 4837" transform="translate(-3199 -1295.745)">
        <g id="Group_4836" data-name="Group 4836" transform="translate(0 0)" clip-path="url(#clip-path)">
          <rect id="Rectangle_1227" data-name="Rectangle 1227" width="32.237" height="179.24" transform="translate(-90.926 209.544)" fill="#f5f5f5"/>
          <rect id="Rectangle_1228" data-name="Rectangle 1228" width="32.238" height="234.604" transform="translate(-39.432 154.181)" fill="#fafafa"/>
          <rect id="Rectangle_1229" data-name="Rectangle 1229" width="32.237" height="209.122" transform="translate(218.044 179.662)" fill="rgba(255,154,51,0.35)"/>
          <path id="Path_13498" data-name="Path 13498" d="M0,0H32.237V174.972H0Z" transform="translate(12.064 213.812)" fill="#ff9a33"/>
          <path id="Path_13496" data-name="Path 13496" d="M0,0H32.237V205.979H0Z" transform="translate(166.549 182.805)" fill="#ff9a33"/>
          <path id="Path_13497" data-name="Path 13497" d="M0,0H32.237V273.173H0Z" transform="translate(115.055 115.612)" fill="#ff9a33" opacity="0.85"/>
          <rect id="Rectangle_1233" data-name="Rectangle 1233" width="32.237" height="136.556" transform="translate(-142.421 250.904)" fill="#fafafa"/>
          <path id="Path_13495" data-name="Path 13495" d="M0,0H32.237V300.374H0Z" transform="translate(269.539 87.084)" fill="#ff9a33" opacity="0.85"/>
          <path id="Path_12528" data-name="Path 12528" d="M0,0H32.237V223.634H0Z" transform="translate(63.559 165.151)" fill="#ffd5a9"/>
          <g id="Group_4830" data-name="Group 4830" transform="translate(-10.841 -10.286)">
            <g id="Group_4829" data-name="Group 4829" clip-path="url(#clip-path-2)">
              <path id="Path_12513" data-name="Path 12513" d="M394.084,41.471A18.755,18.755,0,0,0,372.4,19.91a21.53,21.53,0,0,0-39.2,5.246,13.979,13.979,0,0,0-17.828,16.315Z" transform="translate(-47.141 29.853)" fill="#ffdbb4"/>
              <path id="Path_12514" data-name="Path 12514" d="M233.472,42.524A24.9,24.9,0,0,0,208.749,13.54a25.39,25.39,0,0,0-4.061.356,28.586,28.586,0,0,0-52.045,6.967,18.559,18.559,0,0,0-23.67,21.661Z" transform="translate(-127.305 12.786)" fill="rgba(255,154,51,0.29)"/>
              <path id="Path_12524" data-name="Path 12524" d="M135.073,59.556a13.4,13.4,0,0,0-15.483-15.4A15.375,15.375,0,0,0,91.6,47.9,9.979,9.979,0,0,0,78.865,59.556Z" transform="translate(27.869 29.751)" fill="#ffe8cf" opacity="0.8"/>
            </g>
          </g>
          <path id="Path_12516" data-name="Path 12516" d="M33.4,194.2l-1.591-2.19,114.706-83.329L223.345,161.2l61.817-39.226,65.855,20.868,74.839-87.427,2.048,1.771-76.337,89.161-66.29-21.134-61.969,39.335-.789-.589L146.5,112.038Z" transform="translate(-134.368 41.019)" fill="#c8e3c5"/>
          <g id="Group_4835" data-name="Group 4835" transform="translate(-142.421 27.116)">
            <g id="Group_4834" data-name="Group 4834" clip-path="url(#clip-path-3)">
              <path id="Path_12518" data-name="Path 12518" d="M40.494,167.572a6.76,6.76,0,1,1-5.665-7.7,6.761,6.761,0,0,1,5.665,7.7" transform="translate(6.847 40.45)" fill="#407bff"/>
              <path id="Path_12519" data-name="Path 12519" d="M127.861,101.158a4.915,4.915,0,1,1-4.119-5.6,4.914,4.914,0,0,1,4.119,5.6" transform="translate(29.892 24.175)" fill="#138707"/>
              <path id="Path_12520" data-name="Path 12520" d="M238.923,111.979a4.1,4.1,0,1,1-3.432-4.665,4.1,4.1,0,0,1,3.432,4.665" transform="translate(58.418 27.153)" fill="#138707"/>
              <path id="Path_12521" data-name="Path 12521" d="M192.251,147.052a6.393,6.393,0,1,1-5.358-7.283,6.393,6.393,0,0,1,5.358,7.283" transform="translate(45.447 30.687)" fill="#138707"/>
              <path id="Path_12522" data-name="Path 12522" d="M292.495,144.107a4.821,4.821,0,1,1-4.04-5.491,4.821,4.821,0,0,1,4.04,5.491" transform="translate(71.614 15.116)" fill="#138707"/>
              <path id="Path_12523" data-name="Path 12523" d="M365.683,48.342l-25.02,16.416,14.5,11.6Z" transform="translate(78.251 10.241)" fill="#138707"/>
            </g>
          </g>
        </g>
      </g>
      <g id="Group_4837-2" data-name="Group 4837" transform="translate(-3199 -1295.745)" opacity="0">
        <g id="Group_4836-2" data-name="Group 4836" transform="translate(0 0)" clip-path="url(#clip-path)">
          <rect id="Rectangle_1227-2" data-name="Rectangle 1227" width="32.237" height="179.24" transform="translate(-90.926 209.544)" fill="#f5f5f5"/>
          <rect id="Rectangle_1228-2" data-name="Rectangle 1228" width="32.238" height="234.604" transform="translate(-39.432 154.181)" fill="#fafafa"/>
          <rect id="Rectangle_1233-2" data-name="Rectangle 1233" width="32.237" height="136.556" transform="translate(-142.421 250.904)" fill="#fafafa"/>
          <path id="Path_13493" data-name="Path 13493" d="M32.237,309.62h0Z" transform="translate(269.539 77.838)" fill="#fff" opacity="0.85"/>
          <path id="Path_12516-2" data-name="Path 12516" d="M33.4,194.2l-1.591-2.19,114.706-83.329L223.345,161.2l61.817-39.226,65.855,20.868,74.839-87.427,2.048,1.771-76.337,89.161-66.29-21.134-61.969,39.335-.789-.589L146.5,112.038Z" transform="translate(-134.368 41.019)" fill="#ffe9d2"/>
          <g id="Group_4835-2" data-name="Group 4835" transform="translate(-142.421 27.116)">
            <g id="Group_4834-2" data-name="Group 4834" clip-path="url(#clip-path-3)">
              <path id="Path_12518-2" data-name="Path 12518" d="M40.494,167.572a6.76,6.76,0,1,1-5.665-7.7,6.761,6.761,0,0,1,5.665,7.7" transform="translate(6.847 40.45)" fill="#407bff"/>
              <path id="Path_12519-2" data-name="Path 12519" d="M127.861,101.158a4.915,4.915,0,1,1-4.119-5.6,4.914,4.914,0,0,1,4.119,5.6" transform="translate(29.892 24.175)" fill="#ff9a33"/>
              <path id="Path_12520-2" data-name="Path 12520" d="M238.923,111.979a4.1,4.1,0,1,1-3.432-4.665,4.1,4.1,0,0,1,3.432,4.665" transform="translate(58.418 27.153)" fill="#ff9a33"/>
              <path id="Path_12521-2" data-name="Path 12521" d="M192.251,147.052a6.393,6.393,0,1,1-5.358-7.283,6.393,6.393,0,0,1,5.358,7.283" transform="translate(45.447 30.687)" fill="#ff9a33"/>
              <path id="Path_12522-2" data-name="Path 12522" d="M292.495,144.107a4.821,4.821,0,1,1-4.04-5.491,4.821,4.821,0,0,1,4.04,5.491" transform="translate(71.614 15.116)" fill="#ff9a33"/>
              <path id="Path_12523-2" data-name="Path 12523" d="M365.683,48.342l-25.02,16.416,14.5,11.6Z" transform="translate(78.251 10.241)" fill="#ff9a33"/>
            </g>
          </g>
        </g>
      </g>
    </g>
  </g>
</svg>
