<svg xmlns="http://www.w3.org/2000/svg" xmlns:xlink="http://www.w3.org/1999/xlink" width="347.373" height="234.745" viewBox="0 0 347.373 234.745">
  <defs>
    <clipPath id="clip-path">
      <rect id="Rectangle_1239" data-name="Rectangle 1239" width="347.373" height="234.745" transform="translate(0 0)" fill="none"/>
    </clipPath>
    <clipPath id="clip-path-2">
      <rect id="Rectangle_1236" data-name="Rectangle 1236" width="369.15" height="295.1" fill="none"/>
    </clipPath>
    <clipPath id="clip-path-3">
      <rect id="Rectangle_1238" data-name="Rectangle 1238" width="468.154" height="372.8" fill="none"/>
    </clipPath>
  </defs>
  <g id="Group_4837" data-name="Group 4837" transform="translate(-82 -7)">
    <g id="Group_4836" data-name="Group 4836" transform="translate(82 7)" clip-path="url(#clip-path)">
      <rect id="Rectangle_1227" data-name="Rectangle 1227" width="33.229" height="184.757" transform="translate(-93.724 215.994)" fill="#f5f5f5"/>
      <rect id="Rectangle_1228" data-name="Rectangle 1228" width="33.231" height="241.825" transform="translate(-40.645 158.926)" fill="#fafafa"/>
      <rect id="Rectangle_1229" data-name="Rectangle 1229" width="33.229" height="215.559" transform="translate(224.756 185.192)" fill="#eff3f3"/>
      <rect id="Rectangle_1230" data-name="Rectangle 1230" width="33.229" height="180.357" transform="translate(12.435 220.394)" fill="#f1f4f4"/>
      <rect id="Rectangle_1231" data-name="Rectangle 1231" width="33.229" height="212.32" transform="translate(171.675 188.432)" fill="rgba(241,244,244,0.48)"/>
      <rect id="Rectangle_1232" data-name="Rectangle 1232" width="33.229" height="281.581" transform="translate(118.597 119.17)" fill="#eff3f3" opacity="0.85"/>
      <rect id="Rectangle_1233" data-name="Rectangle 1233" width="33.229" height="140.759" transform="translate(-146.804 258.627)" fill="#fafafa"/>
      <rect id="Rectangle_1234" data-name="Rectangle 1234" width="33.229" height="309.62" transform="translate(277.836 89.765)" fill="#eff3f3" opacity="0.85"/>
      <path id="Path_12528" data-name="Path 12528" d="M0,0H33.229V230.517H0Z" transform="translate(65.515 170.234)" fill="rgba(241,244,244,0.48)"/>
      <g id="Group_4830" data-name="Group 4830" transform="translate(-11.175 -10.602)">
        <g id="Group_4829" data-name="Group 4829" clip-path="url(#clip-path-2)">
          <path id="Path_12513" data-name="Path 12513" d="M396.516,42.457a19.332,19.332,0,0,0-22.348-22.225,22.193,22.193,0,0,0-40.407,5.408,14.409,14.409,0,0,0-18.377,16.817Z" transform="translate(-38.895 31.063)" fill="#f1f4f4" opacity="0.8"/>
          <path id="Path_12514" data-name="Path 12514" d="M236.7,43.833a25.666,25.666,0,0,0-25.484-29.876,26.171,26.171,0,0,0-4.186.367A29.466,29.466,0,0,0,153.385,21.5a19.13,19.13,0,0,0-24.4,22.328Z" transform="translate(-127.267 13.18)" fill="#f1f4f4"/>
          <path id="Path_12524" data-name="Path 12524" d="M136.81,60.26a13.81,13.81,0,0,0-15.96-15.872A15.849,15.849,0,0,0,91.994,48.25,10.286,10.286,0,0,0,78.872,60.26Z" transform="translate(31.147 31.796)" fill="#eaeeee" opacity="0.8"/>
        </g>
      </g>
      <path id="Path_12516" data-name="Path 12516" d="M33.451,198.468l-1.64-2.258,118.237-85.893,79.193,54.14,63.72-40.433,67.882,21.51,77.142-90.118,2.111,1.825-78.687,91.906-68.33-21.784L229.2,167.908l-.814-.607-78.362-53.52Z" transform="translate(-137.525 43.988)" fill="#c8e3c5"/>
      <g id="Group_4835" data-name="Group 4835" transform="translate(-146.804 27.951)">
        <g id="Group_4834" data-name="Group 4834" clip-path="url(#clip-path-3)">
          <path id="Path_12518" data-name="Path 12518" d="M40.908,167.812a6.968,6.968,0,1,1-5.84-7.938,6.969,6.969,0,0,1,5.84,7.938" transform="translate(7.891 46.613)" fill="#407bff"/>
          <path id="Path_12519" data-name="Path 12519" d="M128.161,101.333a5.066,5.066,0,1,1-4.246-5.771,5.066,5.066,0,0,1,4.246,5.771" transform="translate(34.447 27.859)" fill="#138707"/>
          <path id="Path_12520" data-name="Path 12520" d="M239.174,112.124a4.222,4.222,0,1,1-3.538-4.809,4.221,4.221,0,0,1,3.538,4.809" transform="translate(67.32 31.291)" fill="#138707"/>
          <path id="Path_12521" data-name="Path 12521" d="M192.643,147.279a6.59,6.59,0,1,1-5.523-7.507,6.59,6.59,0,0,1,5.523,7.507" transform="translate(52.373 35.931)" fill="#138707"/>
          <path id="Path_12522" data-name="Path 12522" d="M292.79,144.278a4.969,4.969,0,1,1-4.164-5.66,4.969,4.969,0,0,1,4.164,5.66" transform="translate(82.527 19.846)" fill="#138707"/>
          <path id="Path_12523" data-name="Path 12523" d="M366.453,48.342l-25.79,16.921,14.945,11.955Z" transform="translate(91.145 12.044)" fill="#138707"/>
        </g>
      </g>
    </g>
  </g>
</svg>
