<svg xmlns="http://www.w3.org/2000/svg" xmlns:xlink="http://www.w3.org/1999/xlink" width="751.216" height="570.606" viewBox="0 0 751.216 570.606">
  <defs>
    <clipPath id="clip-path">
      <rect id="Rectangle_2734" data-name="Rectangle 2734" width="751.216" height="508.167" fill="none"/>
    </clipPath>
    <clipPath id="clip-path-2">
      <rect id="Rectangle_2730" data-name="Rectangle 2730" width="751.215" height="508.168" fill="none"/>
    </clipPath>
    <clipPath id="clip-path-3">
      <rect id="Rectangle_2723" data-name="Rectangle 2723" width="103.811" height="103.566" fill="none"/>
    </clipPath>
    <clipPath id="clip-path-4">
      <rect id="Rectangle_2724" data-name="Rectangle 2724" width="58.712" height="97.054" fill="none"/>
    </clipPath>
    <clipPath id="clip-path-5">
      <rect id="Rectangle_2726" data-name="Rectangle 2726" width="33.232" height="3.823" fill="none"/>
    </clipPath>
    <clipPath id="clip-path-6">
      <rect id="Rectangle_2731" data-name="Rectangle 2731" width="13.105" height="51.63" fill="none"/>
    </clipPath>
    <clipPath id="clip-path-8">
      <rect id="Rectangle_2732" data-name="Rectangle 2732" width="48.87" height="31.406" fill="none"/>
    </clipPath>
  </defs>
  <g id="Group_31459" data-name="Group 31459" transform="translate(0 14.815)">
    <path id="Path_13200" data-name="Path 13200" d="M285.3,0c157.568,0,285.3,127.734,285.3,285.3s-127.734,285.3-285.3,285.3S0,442.871,0,285.3,127.734,0,285.3,0Z" transform="translate(90.078 -14.815)" fill="rgba(255,154,51,0.08)"/>
    <g id="Group_31458" data-name="Group 31458" transform="translate(0 0.442)" clip-path="url(#clip-path)">
      <g id="Group_31450" data-name="Group 31450" transform="translate(0 -0.001)">
        <g id="Group_31449" data-name="Group 31449" clip-path="url(#clip-path-2)">
          <g id="Group_31442" data-name="Group 31442" transform="translate(163.005 41.786)" opacity="0.28">
            <g id="Group_31441" data-name="Group 31441">
              <g id="Group_31440" data-name="Group 31440" clip-path="url(#clip-path-3)">
                <path id="Path_13123" data-name="Path 13123" d="M613.976,259.783a30.782,30.782,0,1,0-6.588-43.031,30.817,30.817,0,0,0,6.588,43.031m3.68-6.713h0a23.216,23.216,0,0,1,29.084-36.193h0a23.215,23.215,0,1,1-29.084,36.193" transform="translate(-580.205 -183.437)" fill="rgba(255,154,51,0.3)"/>
                <path id="Path_13124" data-name="Path 13124" d="M557.958,232.543c.736.142,1.223-.379,2.443-1.657,2.182-2.286,4.365-4.572,6.625-6.78a2.04,2.04,0,0,1,1.685-.361c2.976.844,5.9,1.867,8.885,2.68.925.252,1.359.528,1.536,1.522.708,3.974,1.528,7.929,2.3,11.847,3.637.57,12.685-.309,15.618-1.55-.052-3.846-.046-7.776-.195-11.7a1.945,1.945,0,0,1,1.429-2.242,80.991,80.991,0,0,0,7.9-4.223c1.041-.616,1.767-.875,2.875-.09,2.874,2.034,5.87,3.894,8.779,5.88.781.534,1.384.588,1.989-.153q4.267-5.225,8.529-10.455c.7-.857-.045-1.333-.523-1.812-2.417-2.418-4.822-4.851-7.318-7.186a2.211,2.211,0,0,1-.62-2.819c1.192-3.233,2.173-6.542,3.32-10.073l12.648-2.535a46.087,46.087,0,0,0-1.7-15.515l-12.643.123c-2.037-3.575-3.85-6.928-5.852-10.164a1.738,1.738,0,0,1,.042-2.289c1.962-2.863,3.835-5.787,5.777-8.664.42-.622.648-1.111.046-1.76a44.085,44.085,0,0,0-10.232-8.513,1.386,1.386,0,0,0-1.992.316c-2.5,2.55-5.057,5.052-7.55,7.612a1.61,1.61,0,0,1-1.979.5c-3.238-1.038-6.525-1.938-9.828-2.752a1.368,1.368,0,0,1-1.194-1.3c-.794-3.96-1.617-7.914-2.45-11.971a49.451,49.451,0,0,0-15.358,1.526c.044,4.475.087,8.921.128,13.176L559.7,157.292c-2.582-1.7-5.543-3.682-8.536-5.612-2.457-1.585-1.953-1.824-4.157.4a4.831,4.831,0,0,1-.749.518l-5.064,6.3a9.578,9.578,0,0,1-.884,1.588c-.988,1.194-.989,2.091.257,3.23,2.6,2.374,5.044,4.912,7.492,7.441a1.869,1.869,0,0,1,.379,1.516c-.779,2.942-1.815,5.825-2.437,8.8a2.286,2.286,0,0,1-2.232,2.115c-3.764.684-7.5,1.522-11.623,2.377.516,5.2,1.019,10.277,1.529,15.409.978.009,1.54.023,2.1.018,3.47-.035,7.331.375,10.8.278a1.744,1.744,0,0,1,1.828,1.2c1.542,2.915,2.881,5.318,4.443,8.223a2.061,2.061,0,0,1-.079,1.744c-1.5,2.417-3.141,4.75-4.693,7.137-1.256,1.932-1.715,2.653-1.3,3.594Zm7.313-18.91a31.874,31.874,0,1,1,23.69,5.817,31.664,31.664,0,0,1-23.69-5.817" transform="translate(-532.146 -136.408)" fill="rgba(255,154,51,0.3)"/>
              </g>
            </g>
          </g>
          <path id="Path_13125" data-name="Path 13125" d="M1178.625,776.039,1101.346,801.6l15.514,12.93h0l-66.869,70L991.377,834.2,757.406,1025.91l2.06.032h58.285L990.8,884.15l61.794,53.057,93.729-98.122h0l16.746,13.956Z" transform="translate(-525.4 -538.325)" fill="#138707"/>
          <path id="Path_13126" data-name="Path 13126" d="M349.749,1185.819l-18.176,120.8-161.05-24.234h0l-67.857-10.21,18.177-120.8,126.7,19.063Z" transform="translate(-71.216 -798.691)" fill="#bdddb9"/>
          <path id="Path_13127" data-name="Path 13127" d="M362.044,1231.372l-14.112,93.785L142.183,1294.2l14.112-93.784Zm-15.238,81.848,10.642-70.727a8.791,8.791,0,0,0-7.385-10l-182.492-27.459a8.949,8.949,0,0,0-10.18,7.518l-10.6,70.445a8.874,8.874,0,0,0,7.455,10.1l182.609,27.477a8.747,8.747,0,0,0,9.95-7.348" transform="translate(-98.63 -832.706)" fill="#fff"/>
          <path id="Path_13128" data-name="Path 13128" d="M439.472,1371.479a25.516,25.516,0,1,1,29.029-21.436,25.517,25.517,0,0,1-29.029,21.436" transform="translate(-289.786 -916.166)" fill="#fff"/>
          <path id="Path_13129" data-name="Path 13129" d="M1318.6,1378.791a50.141,50.141,0,1,1,50.141,50.142,50.141,50.141,0,0,1-50.141-50.142" transform="translate(-914.692 -921.661)" fill="#e2810e"/>
          <g id="Group_31445" data-name="Group 31445" transform="translate(453.826 409.911)" opacity="0.5">
            <g id="Group_31444" data-name="Group 31444">
              <g id="Group_31443" data-name="Group 31443" clip-path="url(#clip-path-4)">
                <path id="Path_13130" data-name="Path 13130" d="M1540.268,1393.263q0,2.364-.177,4.678v.013q-.123,1.579-.326,3.135a58.375,58.375,0,0,1-1.145,6.233q-.439,1.861-1,3.665a57.711,57.711,0,0,1-2,5.49c-.03.076-.063.155-.1.23-.694,1.628-1.464,3.217-2.3,4.754q-1.234,2.274-2.655,4.4c-.059.092-.122.181-.184.273q-.552.823-1.141,1.622a53.081,53.081,0,0,1-6.615,7.487h-28.146a2.153,2.153,0,0,1-2.09-1.514,1.725,1.725,0,0,1-.058-.222,1.343,1.343,0,0,1-.023-.2v-5.51a1.244,1.244,0,0,1,.023-.2,1.693,1.693,0,0,1,.058-.222,2.153,2.153,0,0,1,2.09-1.514H1483.73a2.155,2.155,0,0,1-2.091-1.518,1.788,1.788,0,0,1-.057-.223,1.349,1.349,0,0,1-.023-.2c0-.037,0-.073,0-.106v-5.3c0-.036,0-.072,0-.105a1.285,1.285,0,0,1,.023-.2,1.744,1.744,0,0,1,.058-.223,2.152,2.152,0,0,1,2.09-1.517h4.191a2.047,2.047,0,0,1-1.158-1.615.435.435,0,0,1-.01-.092c0-.033,0-.069,0-.105v-5.3c0-.033,0-.069,0-.105a1.316,1.316,0,0,1,.023-.2,1.64,1.64,0,0,1,.057-.222,2.154,2.154,0,0,1,2.087-1.518h2.408a2.151,2.151,0,0,1-2.087-1.514,1.717,1.717,0,0,1-.058-.222,1.3,1.3,0,0,1-.023-.2c0-.036,0-.072,0-.105v-5.3c0-.036,0-.072,0-.105a1.621,1.621,0,0,1,.02-.184,2.131,2.131,0,0,1,1.891-1.74h-7.132a2.153,2.153,0,0,1-2.09-1.514,1.758,1.758,0,0,1-.057-.222,1.358,1.358,0,0,1-.023-.2v-5.51a.774.774,0,0,0,.006-.086,1.776,1.776,0,1,0-.2-3.546,1.6,1.6,0,0,1-.02-.175c0-.036,0-.069,0-.105v-5.3c0-.037,0-.069,0-.106a1.292,1.292,0,0,1,.023-.2,1.726,1.726,0,0,1,.058-.223,2.151,2.151,0,0,1,2.09-1.517h4.191a2.049,2.049,0,0,1-1.158-1.616.426.426,0,0,1-.01-.092c0-.033,0-.069,0-.1v-5.3c0-.036,0-.073,0-.105a1.274,1.274,0,0,1,.023-.2,1.728,1.728,0,0,1,.057-.223,2.151,2.151,0,0,1,2.087-1.517h8.214a2.15,2.15,0,0,1-2.087-1.517,1.653,1.653,0,0,1-.058-.223,1.3,1.3,0,0,1-.023-.2c0-.036,0-.069,0-.105v-5.3c0-.036,0-.069,0-.105a1.761,1.761,0,0,1,.042-.273,2.134,2.134,0,0,1,1.87-1.652H1483.94a2.152,2.152,0,0,1-2.09-1.514,1.734,1.734,0,0,1-.057-.222,1.264,1.264,0,0,1-.023-.2v-5.51a1.356,1.356,0,0,1,.023-.2,1.764,1.764,0,0,1,.057-.222,2.153,2.153,0,0,1,2.09-1.514h6.421a2.062,2.062,0,0,1-1.174-1.507.871.871,0,0,1-.02-.131.7.7,0,0,1-.006-.082c0-.036,0-.073,0-.105v-5.3c0-.036,0-.069,0-.105a1.642,1.642,0,0,1,.02-.185,2.131,2.131,0,0,1,1.891-1.74,2.29,2.29,0,0,1,.257-.013h2.911a2.119,2.119,0,0,1-1.911-1.727,1.249,1.249,0,0,1-.023-.2v-2.062a46.081,46.081,0,0,1,16.691,3.987.145.145,0,0,1,.029.013,49.461,49.461,0,0,1,13.665,9.155c.079.072.155.145.234.217a53.435,53.435,0,0,1,5.411,6c.391.5.77,1.013,1.141,1.53.385.532.757,1.072,1.122,1.618a.057.057,0,0,1,.01.013q.661,1,1.29,2.034c.395.648.773,1.305,1.141,1.977a56.032,56.032,0,0,1,2.6,5.362,58,58,0,0,1,2.993,9.152c.02.075.036.154.056.23.079.332.151.665.224,1a59.4,59.4,0,0,1,1.145,7.695c.01.132.023.263.033.395,0,.023,0,.043,0,.066q.172,2.29.174,4.625" transform="translate(-1481.557 -1338.191)" fill="#e2810e"/>
              </g>
            </g>
          </g>
          <path id="Path_13131" data-name="Path 13131" d="M1303.32,1378.791a50.142,50.142,0,1,1,50.142,50.142,50.141,50.141,0,0,1-50.142-50.142" transform="translate(-904.092 -921.661)" fill="#ffb93e"/>
          <path id="Path_13132" data-name="Path 13132" d="M1364.556,1436.5a45.685,45.685,0,1,1,32.3-13.381,45.386,45.386,0,0,1-32.3,13.381m0-88.644a42.959,42.959,0,1,0,42.959,42.959,43.008,43.008,0,0,0-42.959-42.959" transform="translate(-914.879 -933.096)" fill="#ffa412"/>
          <path id="Path_13133" data-name="Path 13133" d="M1428.99,1431.13a7.539,7.539,0,0,0-.108-2.653,5.51,5.51,0,0,0-1.122-2.2,10.407,10.407,0,0,0-2.243-1.979,27.448,27.448,0,0,0-3.476-1.946,72.024,72.024,0,0,1-6.419-3.527,22.728,22.728,0,0,1-4.8-3.906,13.369,13.369,0,0,1-2.835-4.76,15.1,15.1,0,0,1,1.22-11.417,12.7,12.7,0,0,1,3.54-3.933,15.843,15.843,0,0,1,5.069-2.414,21.147,21.147,0,0,1,6.329-.729l.893-7.53,6.061.719-.906,7.635a18.944,18.944,0,0,1,5.7,2.425,14.323,14.323,0,0,1,6.384,9.161,19.064,19.064,0,0,1,.25,6.47l-10.947-1.3q.5-4.223-1.125-6.539a6.453,6.453,0,0,0-4.771-2.689,8.2,8.2,0,0,0-2.992.127,5.557,5.557,0,0,0-2.181,1.061,5.179,5.179,0,0,0-1.406,1.814,7.61,7.61,0,0,0-.667,2.383,6.986,6.986,0,0,0,.1,2.4,5.164,5.164,0,0,0,1.075,2.108,10.41,10.41,0,0,0,2.262,1.981,35.062,35.062,0,0,0,3.613,2.089q3.51,1.808,6.351,3.608a23,23,0,0,1,4.776,3.938,12.918,12.918,0,0,1,3.324,10.832,13.807,13.807,0,0,1-1.739,5.431,12.55,12.55,0,0,1-3.555,3.9,15.319,15.319,0,0,1-5.1,2.322,22.831,22.831,0,0,1-6.36.672l-.831,7-6.023-.714.827-6.967a25.588,25.588,0,0,1-5.917-2.093,16.23,16.23,0,0,1-4.847-3.662,14.515,14.515,0,0,1-3.041-5.446,17.67,17.67,0,0,1-.5-7.41l10.948,1.3a10.885,10.885,0,0,0,.206,4.252,7.036,7.036,0,0,0,1.558,2.9,6.835,6.835,0,0,0,2.5,1.724,11.714,11.714,0,0,0,3,.766,9.765,9.765,0,0,0,3.179-.086,6.522,6.522,0,0,0,2.4-1,5.192,5.192,0,0,0,1.591-1.756,6.325,6.325,0,0,0,.741-2.356" transform="translate(-973.025 -960.149)" fill="#ff9a33"/>
          <path id="Path_13134" data-name="Path 13134" d="M961.263,877.672s-.836-4.122,8.652-16.807c2.046-2.736,8.289-13.041,8.289-13.041,2.467-.6,10.151,3.484,12.178,4.729.408.252.643.4.643.4s3.287,14.254-3.7,12.638c-.218-.052-.437-.092-.655-.127-6.754-1.053-13.276,5.651-16.241,9.907-1.929,2.766-7.883,2.41-9.168,2.3" transform="translate(-666.799 -588.08)" fill="#010101"/>
          <path id="Path_13135" data-name="Path 13135" d="M1124.746,787.237s-.836-4.122,8.652-16.807c2.046-2.736,8.289-13.04,8.289-13.04,2.467-.6,10.151,3.484,12.178,4.728.407.252.643.4.643.4s3.288,14.254-3.7,12.638c-.218-.052-.437-.092-.655-.127-6.755-1.053-13.276,5.651-16.241,9.908-1.928,2.767-7.883,2.41-9.167,2.3" transform="translate(-780.205 -525.346)" fill="#010101"/>
          <path id="Path_13136" data-name="Path 13136" d="M1288.913,558.457c-1.941-8.339-23.522-34.339-34.576-28.317s-5.32,38.726,6.2,77.295q.264.883.537,1.754c-23.224-3.813-50.865-4.971-50.865-4.971l-2.909,13.43c20.927,5.783,61.584,25.881,78.634,34.535,6.519,2.956,14.175,2.956,15.734-2.78,5.219-19.2-12.757-90.947-12.757-90.947" transform="translate(-837.486 -367.127)" fill="#010101"/>
          <path id="Path_13137" data-name="Path 13137" d="M1136.089,910.574s-49.4-22.292-79.521-31.3c-3.733-1.114-7.161-2.02-10.167-2.661l3.167-12.919s2.951-.053,7.74-.046c18.754.053,65.717,1.1,74.108,10.308,10.528,11.559,4.672,36.616,4.672,36.616" transform="translate(-725.871 -599.098)" fill="#ffb27d"/>
          <path id="Path_13138" data-name="Path 13138" d="M1433.228,5.92c1.621,3.735,2.918,8.634,1.819,11.217a10,10,0,0,0-.9,5.047l-2.655.649-3.172.773s-.169-.272-.424-.736-.593-1.118-.93-1.882a2.732,2.732,0,0,0-1.5-2.043,5.834,5.834,0,0,1-3.031-3.847c-.259-1.576-1.876-4.519-1.416-4.827,1.109-.751,2.778,3.826,3.758,4.031a.976.976,0,0,0,1.215-.566c0-.009.006-.016.007-.024,1.541-3.741-1.3-13.184.951-13.708.844-.195,5.587,4.326,6.278,5.917" transform="translate(-985.68 0.004)" fill="#ffb27d"/>
          <path id="Path_13139" data-name="Path 13139" d="M896.311,244.1c2.761,2.993,6.718,6.158,9.525,6.2a10,10,0,0,1,4.981,1.215l1.667-2.166,1.99-2.59s-.18-.265-.5-.685-2.57-2.312-2.609-3.808a5.834,5.834,0,0,0-2.294-4.327c-1.337-.873-3.375-3.542-3.843-3.246-1.136.711,2.377,4.088,2.168,5.067a.975.975,0,0,1-1.009.883l-.026,0c-4.045-.1-11.531-6.521-12.922-4.671-.519.693,1.7,6.859,2.875,8.134" transform="translate(-619.708 -162.784)" fill="#ffb27d"/>
          <path id="Path_13140" data-name="Path 13140" d="M1141.9,582.047c-12.184,3.16-9.127,17.811-7.307,58.023.206,4.55.63,8.944,1.23,13.136-17.857-3.587-45.312-4.125-58.6-4.163,0,0-2.207,4.911-2.112,8.833a25.454,25.454,0,0,0,4.469,13.879C1109.7,680.761,1156,695.967,1156,695.967l.009-.035c3.086.8,5.992-.743,8.3-5.166,9.211-17.639,24.973-135.027,24.973-135.027.14-8.561-35.2,23.149-47.383,26.309" transform="translate(-745.782 -384.492)" fill="#010101"/>
          <path id="Path_13141" data-name="Path 13141" d="M1219.071,291.068s4.283-10.861-4.046-26.352l11.844,2.63,8.045,1.786a77,77,0,0,1,3.072,7.843c.457,1.341,2.157,6.722,2.656,8.386,2.829.119-1.25,4.4-7.056,5.247a85.292,85.292,0,0,1-14.516.46" transform="translate(-842.843 -183.628)" fill="#ffb27d"/>
          <path id="Path_13142" data-name="Path 13142" d="M1243.338,275.088a76.855,76.855,0,0,1,3.072,7.843c-6.913,2.062-19.241-4.658-19.241-4.658a22.652,22.652,0,0,1,8.124-4.971Z" transform="translate(-851.267 -189.584)" fill="#ed975d"/>
          <path id="Path_13143" data-name="Path 13143" d="M1216.82,211.194s-13.721,15.175-23.039,6.484-17.365-12.584-9-22.64,13.653-8.6,17.468-6.452,17.9,18.436,14.57,22.607" transform="translate(-819.431 -129.741)" fill="#ffb27d"/>
          <path id="Path_13144" data-name="Path 13144" d="M1178.122,192.521s1.406-1.559-.629-3.585-4.35-4.949-2.1-5.847,3.494.485,3.566-.957-2.756-5.03,2.451-9.57,8.9-4.4,10.532-7.5-1.252-7.009-1.252-7.009a5.522,5.522,0,0,1-.373,3.215s-.361-9.064-8.337-9.142-10.882,6.426-13.557,8.827c-5.892,5.289-9.6,8.835-8.389,14.508s11.008,16.3,18.088,17.065" transform="translate(-804.539 -105.522)" fill="#010101"/>
          <path id="Path_13145" data-name="Path 13145" d="M1269.328,244.741l5.089-4.79s2.071,3.176.618,4.555-5.708.235-5.708.235" transform="translate(-880.512 -166.449)" fill="#fff"/>
          <path id="Path_13146" data-name="Path 13146" d="M1112.989,97.128c-2.178-13.468-8.729-28.274-8.729-28.274l-7.137-.325s.793,18.245.617,31a27.134,27.134,0,0,1-3.493,12.653c-2.217,2.964-34.849,34.373-35.942,35.374l-.026.026,0,0c-3.474.591-3.086,6.3-6.656,7.253-5.949,1.6-15.828-1.311-21.115.648h0s-42.372.048-48.821-3.04S950.1,130.825,950.1,130.825l-4.659,5.424s17.26,33.225,30.941,39.2c7.448,3.254,23.806,7.17,37.168,10.063a14.975,14.975,0,0,1,11.118,10.225c12.572,40.535,6.244,74.717,6.244,74.717a78.786,78.786,0,0,0,27.043-2.817,145.3,145.3,0,0,0,33.745-14.191c5.5-6.662,2.247-31.09,2.247-31.09a23.645,23.645,0,0,1,5.065,10.941c.916,4.931,1.408,7.658,1.713,9.39a2.226,2.226,0,0,0,3.516,1.405c2.818-2.087,6.839-5.335,8.1-7.719,4.39-8.332-5.372-42.262-18.856-65.937a13.246,13.246,0,0,1,.252-13.569c8.3-13.306,21.046-34.409,21.2-38.646a173.076,173.076,0,0,0-1.95-21.095" transform="translate(-655.838 -47.536)" fill="#ff9a33"/>
          <path id="Path_13147" data-name="Path 13147" d="M1189.093,357.553s11.375,16.141,3.033,31.741-41.112,13.445-47.178,32.932l3.688,12.133,13.7-7.421s1.146-10.536,14.625-15.112c26.324-8.937,32.661-24.374,27.136-38.187-4.669-11.673-11.429-17.3-11.429-17.3Z" transform="translate(-794.232 -247.187)" fill="#010101"/>
          <path id="Path_13148" data-name="Path 13148" d="M1225.774,331.3l13.192,4.358.651,2.5-16.454-.39a23.939,23.939,0,0,1,2.611-6.47" transform="translate(-848.489 -229.816)" fill="#cf7416"/>
          <path id="Path_13149" data-name="Path 13149" d="M1294.7,319.462l.439,6.82s1.729,1.415,1.706,1.227,3.711-5.853,3.711-5.853a37.89,37.89,0,0,0-5.856-2.195" transform="translate(-898.113 -221.604)" fill="#cf7416"/>
          <path id="Path_13150" data-name="Path 13150" d="M1273.172,340.263l6.725-2.27a1.027,1.027,0,0,1,1.348.848l.553,4.521a1.027,1.027,0,0,1-.69,1.1l-2.96,1a1.029,1.029,0,0,1-.948-.153l-4.318-3.253a1.027,1.027,0,0,1,.289-1.794" transform="translate(-882.694 -234.421)" fill="#010101"/>
          <path id="Path_13151" data-name="Path 13151" d="M1438.189,65.421l-.593,5.665s7.15.108,7.15,0,.216-2.808.216-2.808l1.191,3.133,2.655-.867-3.039-5.123a11.072,11.072,0,0,1-7.579,0" transform="translate(-997.237 -45.38)" fill="#010101"/>
          <path id="Path_13152" data-name="Path 13152" d="M950.1,271.9l-4.658,5.424,1.367,5.295,1.9-1.3-.934-3.978,3.263,2.678,4.225-5.579Z" transform="translate(-655.839 -188.611)" fill="#010101"/>
          <path id="Path_13153" data-name="Path 13153" d="M957.334,287.167a.433.433,0,1,1,.433.433.433.433,0,0,1-.433-.433" transform="translate(-664.087 -198.901)" fill="#ebf3fa"/>
          <path id="Path_13154" data-name="Path 13154" d="M1456.613,76.3a.343.343,0,1,1,.343.343.343.343,0,0,1-.343-.343" transform="translate(-1010.429 -52.688)" fill="#ebf3fa"/>
          <path id="Path_13155" data-name="Path 13155" d="M1419.913,505.506a.921.921,0,1,1,.921.921.921.921,0,0,1-.921-.921" transform="translate(-984.971 -350.021)" fill="#ebf3fa"/>
          <path id="Path_13156" data-name="Path 13156" d="M1396.042,455.773a.921.921,0,1,1,.921.921.921.921,0,0,1-.921-.921" transform="translate(-968.412 -315.522)" fill="#ebf3fa"/>
          <path id="Path_13157" data-name="Path 13157" d="M1363.151,418.139a.921.921,0,1,1,.921.921.921.921,0,0,1-.921-.921" transform="translate(-945.596 -289.416)" fill="#ebf3fa"/>
          <path id="Path_13158" data-name="Path 13158" d="M1936.881,456.116a34.784,34.784,0,0,0-8.8-7.776,125.028,125.028,0,0,1,22.08-2.881,125.168,125.168,0,0,1-7.6,20.929,34.871,34.871,0,0,0-5.684-10.271" transform="translate(-1337.479 -309.006)" fill="rgba(255,154,51,0.3)"/>
          <path id="Path_13159" data-name="Path 13159" d="M1585.2,615.412c4.308-4.875,8.8-9.753,13.315-14.466l-14.264-2.291L1571.233,609.1l12.441,15.5.007-.006c-1.782-2.376-1.169-6.15,1.519-9.187" transform="translate(-1089.939 -415.276)" fill="rgba(255,154,51,0.3)"/>
          <path id="Path_13160" data-name="Path 13160" d="M1710.026,741.082c-5.649,3.437-11.459,6.809-17.227,10-3.427,1.9-7.092,1.765-9.086-.272l-.021.017,12.441,15.5,13.019-10.447Z" transform="translate(-1167.95 -514.075)" fill="rgba(255,154,51,0.3)"/>
          <path id="Path_13161" data-name="Path 13161" d="M1724.942,480.893a32.508,32.508,0,0,0-17.548-21.867c-13.587,3.457-30.089,9.776-44.477,21.321a323.059,323.059,0,0,0-29.143,27.313c-4.518,4.713-9.007,9.591-13.315,14.466-2.688,3.037-3.3,6.81-1.519,9.187.031.042.058.087.091.128l16.076,20.034c.1.124.208.239.318.351,1.994,2.037,5.659,2.168,9.086.272,5.767-3.193,11.578-6.565,17.227-10a322.193,322.193,0,0,0,32.756-22.4c14.388-11.546,24.13-26.288,30.448-38.8" transform="translate(-1122.331 -318.418)" fill="rgba(255,154,51,0.3)"/>
          <path id="Path_13162" data-name="Path 13162" d="M1611.4,717.441a1.3,1.3,0,0,1-1.83-.2l-26.178-32.622a1.3,1.3,0,0,1,.2-1.829l1.324-1.063a1.3,1.3,0,0,1,1.829.2l26.178,32.622a1.3,1.3,0,0,1-.2,1.83Z" transform="translate(-1098.173 -472.702)" fill="rgba(255,154,51,0.3)"/>
          <path id="Path_13163" data-name="Path 13163" d="M1600.3,733.855a1.187,1.187,0,0,1-1.654.019l-20.533-25.588a1.187,1.187,0,0,1,.376-1.61l1.324-1.063a1.187,1.187,0,0,1,1.654-.019L1602,731.182a1.186,1.186,0,0,1-.376,1.61Z" transform="translate(-1094.58 -489.233)" fill="rgba(255,154,51,0.3)"/>
          <path id="Path_13164" data-name="Path 13164" d="M1833.41,544.557a12.361,12.361,0,1,1,1.9-17.377,12.361,12.361,0,0,1-1.9,17.377" transform="translate(-1257.865 -362.486)" fill="#ff9a33"/>
          <path id="Path_13165" data-name="Path 13165" d="M2010.053,1329.417H1830.516v-117.1a2.761,2.761,0,0,1,2.76-2.76h174.016a2.761,2.761,0,0,1,2.761,2.76Z" transform="translate(-1269.799 -839.049)" fill="#010101"/>
          <path id="Path_13199" data-name="Path 13199" d="M0,0H165.27V104.941H0Z" transform="translate(567.874 378.811)" fill="rgba(255,255,255,0.18)"/>
          <path id="Path_13166" data-name="Path 13166" d="M1985.805,1636.525l-179.539-.538a12.531,12.531,0,0,1-10.682-6.038l200.937.6h0a12.532,12.532,0,0,1-10.716,5.976" transform="translate(-1245.567 -1130.668)" fill="#2f2f2f"/>
          <path id="Path_13167" data-name="Path 13167" d="M1995.187,1610.7H1795.732a1,1,0,0,1-1-1v-8.8a1,1,0,0,1,1-1h199.455a1,1,0,0,1,1,1v8.8a1,1,0,0,1-1,1" transform="translate(-1244.974 -1109.817)" fill="#010101"/>
          <g id="Group_31448" data-name="Group 31448" transform="translate(633.87 493.25)" opacity="0.14">
            <g id="Group_31447" data-name="Group 31447">
              <g id="Group_31446" data-name="Group 31446" clip-path="url(#clip-path-5)">
                <path id="Path_13168" data-name="Path 13168" d="M2101.875,1614.084h-31.863a.686.686,0,0,1-.686-.685v-2.453a.686.686,0,0,1,.686-.685h31.863a.685.685,0,0,1,.685.685v2.453a.685.685,0,0,1-.685.685" transform="translate(-2069.327 -1610.26)" fill="#000100"/>
              </g>
            </g>
          </g>
          <path id="Path_13169" data-name="Path 13169" d="M1855.6,1348.915H2018.9l.913-48.754-25.222-36.811-24.067,41.958-28.5-23.031-36.417,34.932-22.752-14.021L1855.6,1333.2Z" transform="translate(-1287.198 -876.364)" fill="#fff"/>
          <rect id="Rectangle_2727" data-name="Rectangle 2727" width="73.638" height="1.881" transform="translate(315.162 381.664) rotate(-38.748)" fill="#ff9a33"/>
          <path id="Path_13170" data-name="Path 13170" d="M1201.194,1093.9l6.116.67-.635,5.793" transform="translate(-833.249 -758.816)" fill="#ff9a33"/>
          <rect id="Rectangle_2728" data-name="Rectangle 2728" width="73.638" height="1.881" transform="matrix(0.78, -0.626, 0.626, 0.78, 479.632, 152.203)" fill="#010101"/>
          <path id="Path_13171" data-name="Path 13171" d="M1738.119,344.8l6.116.67-.635,5.793" transform="translate(-1205.705 -239.179)" fill="#010101" stroke="#010101" stroke-linecap="round" stroke-linejoin="round" stroke-width="5"/>
          <rect id="Rectangle_2729" data-name="Rectangle 2729" width="62.796" height="1.604" transform="matrix(0.78, -0.626, 0.626, 0.78, 179.005, 224.515)" fill="#ff9a33" stroke="#ff9a33" stroke-width="1"/>
          <path id="Path_13172" data-name="Path 13172" d="M731.32,603.251l5.216.572-.541,4.94" transform="translate(-507.305 -418.464)" fill="#ff9a33" stroke="#ff9a33" stroke-linecap="round" stroke-linejoin="round" stroke-width="5"/>
          <path id="Path_13173" data-name="Path 13173" d="M415.492,854.512l-95.81,75.79L218.644,802.569v0L176.07,748.748l95.808-75.787L351.37,773.45Z" transform="translate(-122.137 -466.821)" fill="#138707"/>
          <path id="Path_13174" data-name="Path 13174" d="M435.146,889.886l-74.382,58.839L231.681,785.54,306.064,726.7ZM368.1,939.238l56.1-44.373a8.79,8.79,0,0,0,1.441-12.348L311.142,737.78a8.949,8.949,0,0,0-12.57-1.467l-55.871,44.2a8.875,8.875,0,0,0-1.455,12.466L355.811,937.8a8.747,8.747,0,0,0,12.286,1.433" transform="translate(-160.713 -504.1)" fill="#fff"/>
          <path id="Path_13175" data-name="Path 13175" d="M485.992,1047.156a25.516,25.516,0,1,1,35.842,4.182,25.516,25.516,0,0,1-35.842-4.182" transform="translate(-333.306 -697.712)" fill="#ff9a33"/>
          <path id="Path_13176" data-name="Path 13176" d="M850.187,480.783l2.694-3.159,10.218-4.579,8.091-1.054,9.589,1.229,9.769,3.865,7.461,6.293,4.765,7.941,1.978,8.75v8.42l-2.187,8.84-3.326,6.023-5.484,7.971-4.645,6.413-2.877,5.633-.42,5,.269,4.016.929,2.457-.719,2.038-4.135.989-7.8.12-8.941-.21-4.85-.06-2.357-1.093-.39-2.893,1.5-3.613-.809-5.706-1.2-4.7-1.888-2.757-5.9-7.432-5.753-10.158-3.686-12.706v-8.51l2.457-9.349,4.855-7.252,2.877-2.337Z" transform="translate(-582.754 -327.411)" fill="#fff"/>
          <path id="Path_13177" data-name="Path 13177" d="M868.881,469.51c-15.679.2-32.584,10.152-32.63,31.52,0,12.126,4.841,19.657,9.111,26.309a47.074,47.074,0,0,0,4.086,5.3c2.282,2.659,4.255,4.956,5.3,9.258a29.184,29.184,0,0,1,.7,4.633,16.584,16.584,0,0,1-.648,4.016c-.463,1.842-.864,3.438.1,4.671a2.665,2.665,0,0,0,.586.555.675.675,0,0,0,.177.355l1.958,4.155a3.29,3.29,0,0,0,.709,1,2.584,2.584,0,0,0-.154,3.97,2.47,2.47,0,0,0-.316,1.218,2.3,2.3,0,0,0,2.2,2.39c1.58,3.9,5.789,5.712,9.635,5.712s8.048-1.812,9.636-5.712a2.3,2.3,0,0,0,2.2-2.39,2.469,2.469,0,0,0-.316-1.218,2.511,2.511,0,0,0,.856-1.919,2.48,2.48,0,0,0-1.018-2.043,3.446,3.446,0,0,0,.717-1.01l1.958-4.155a.568.568,0,0,0,.208-.37v-.008a2.605,2.605,0,0,0,.555-.532c.964-1.233.563-2.829.1-4.671a16.557,16.557,0,0,1-.648-3.947,29.466,29.466,0,0,1,.725-4.795c1.056-4.24,3.014-6.529,5.288-9.173a46.26,46.26,0,0,0,4.078-5.3c4.27-6.645,9.111-14.176,9.111-26.332-.617-21.938-18.246-31.7-34.264-31.5m10.453,97.536H860.063c-.177,0-.378-.239-.378-.571s.2-.563.378-.563h19.271c.177,0,.378.239.378.563s-.2.571-.378.571m.47-3.068h-20.22c-.208,0-.439-.262-.439-.64s.231-.64.439-.64H879.8c.216,0,.447.262.447.64s-.231.64-.447.64m-4.895,7.354a9.95,9.95,0,0,1-5.211,1.426c-2.929,0-6.113-1.233-7.6-3.893h15.209a6.936,6.936,0,0,1-2.4,2.467m6.575-14.7-1.357,2.883a2.107,2.107,0,0,1-1.935,1.11H861.2a2.13,2.13,0,0,1-1.935-1.11l-1.357-2.875c.162.008.339.015.524.031h.016c.516.046,1.087.07,1.727.07h.324c2.4.077,5.635.115,9.1.115h.055c.019,0,.035.01.054.01s.032-.009.049-.01h.042c4.687,0,7.817-.031,9.913-.123.162,0,.316-.008.47-.015.2-.008.393-.015.578-.031.262-.016.5-.039.725-.054M868.9,543.466a13.057,13.057,0,0,1-1.688-1.4,10.846,10.846,0,0,1,1.711-1.634l0,0-.026,3.034h0M869,531.5a20.966,20.966,0,0,1-2.459-1.449,14.66,14.66,0,0,1,2.482-1.357l.005,0L869,531.505l0,0m.085-9.751a8.864,8.864,0,0,1-1.842-1.094,7.611,7.611,0,0,1,1.865-1.549l0,0-.023,2.648,0,0m1.157-8.656c.131.292.27.562.393.809a5.266,5.266,0,0,1,.57,1.388,3.41,3.41,0,0,1-.937.845Zm.1,11.276h0a10.53,10.53,0,0,1,1.3.709,4.462,4.462,0,0,1-1.284.915Zm.208,24.03-.013-1.513h0a13.591,13.591,0,0,1,1.172.964c-.293.162-.717.362-1.156.547h0m-.1-11.516-.022-2.515h0a5.163,5.163,0,0,1,1.457,1.125,8.571,8.571,0,0,1-1.434,1.388l0,0m-1.631,16.433h0A4.592,4.592,0,0,1,867.263,552a6.231,6.231,0,0,1,1.565-.894l.005,0Zm23.695-26.965a45.512,45.512,0,0,1-3.931,5.1c-2.32,2.7-4.51,5.25-5.674,9.913a30.4,30.4,0,0,0-.779,5.165,18.176,18.176,0,0,0,.7,4.463c.347,1.38.648,2.575.231,3.106-.216.277-.763.594-2.12.74l-.277.023h-.069c-.409.016-.871.031-1.372.054h-7.061a9.834,9.834,0,0,1-1.563-.623l-.034-3.932h0c1.981-.825,3.168-1.349,3.168-2.39,0-.955-1.047-1.8-3.219-3.351l-.047-5.416c2.149-1.717,3.266-2.7,3.266-3.69,0-1.172-1.233-2.089-3.322-3.253h0l-.036-4.208h0c1.75-.871,3.161-1.789,3.161-3.145,0-1.025-1.209-1.618-3.211-2.565l-.035-4.009h0c1.549-1.033,2.713-1.873,2.713-2.945a5.1,5.1,0,0,0-.74-2.3,14.437,14.437,0,0,1-1.65-7.369.909.909,0,1,0-1.819,0,19.411,19.411,0,0,0,.4,4.156l-.06,7.03c-.077.054-.162.108-.231.154-1.881,1.233-3.515,2.3-3.515,3.677,0,1.172,1.4,1.927,3.685,3.022h0l-.025,2.913c-.254.123-.485.231-.686.324-2.1.987-3.762,1.773-3.762,3.106,0,1.064,1.187,1.75,3.669,3.068.216.116.455.247.717.386h0l-.039,4.53h0c-2.313,1.842-3.615,2.945-3.615,4.016,0,.994,1.149,1.873,3.546,3.577l.005,0-.029,3.419c-2.073.879-3.321,1.565-3.422,2.674-.093,1.126,1.118,2.243,2.529,3.137h-7.778c-.5-.023-.964-.038-1.372-.054h-.07l-.277-.023c-1.357-.146-1.9-.463-2.12-.74-.416-.532-.115-1.727.232-3.106a17.894,17.894,0,0,0,.7-4.533,30.8,30.8,0,0,0-.756-5c-1.148-4.725-3.353-7.292-5.689-10.014a43.311,43.311,0,0,1-3.931-5.1c-4.139-6.437-8.826-13.729-8.826-25.315.046-20.142,16.018-29.524,30.834-29.716h.478c15.078,0,31.366,9.242,31.944,29.709,0,11.6-4.687,18.893-8.819,25.323" transform="translate(-580.094 -325.688)" fill="#010101"/>
        </g>
      </g>
      <g id="Group_31452" data-name="Group 31452" transform="translate(282.668 177.587)">
        <g id="Group_31451" data-name="Group 31451" clip-path="url(#clip-path-6)">
          <path id="Path_13178" data-name="Path 13178" d="M868.881,469.51c-15.679.2-32.584,10.152-32.63,31.52,0,12.126,4.841,19.657,9.111,26.309a47.074,47.074,0,0,0,4.086,5.3c2.282,2.659,4.255,4.956,5.3,9.258a29.184,29.184,0,0,1,.7,4.633,16.584,16.584,0,0,1-.648,4.016c-.463,1.842-.864,3.438.1,4.671a2.665,2.665,0,0,0,.586.555.675.675,0,0,0,.177.355l1.958,4.155a3.29,3.29,0,0,0,.709,1,2.584,2.584,0,0,0-.154,3.97,2.47,2.47,0,0,0-.316,1.218,2.3,2.3,0,0,0,2.2,2.39c1.58,3.9,5.789,5.712,9.635,5.712s8.048-1.812,9.636-5.712a2.3,2.3,0,0,0,2.2-2.39,2.469,2.469,0,0,0-.316-1.218,2.511,2.511,0,0,0,.856-1.919,2.48,2.48,0,0,0-1.018-2.043,3.446,3.446,0,0,0,.717-1.01l1.958-4.155a.568.568,0,0,0,.208-.37v-.008a2.605,2.605,0,0,0,.555-.532c.964-1.233.563-2.829.1-4.671a16.557,16.557,0,0,1-.648-3.947,29.466,29.466,0,0,1,.725-4.795c1.056-4.24,3.014-6.529,5.288-9.173a46.26,46.26,0,0,0,4.078-5.3c4.27-6.645,9.111-14.176,9.111-26.332-.617-21.938-18.246-31.7-34.264-31.5m10.453,97.536H860.063c-.177,0-.378-.239-.378-.571s.2-.563.378-.563h19.271c.177,0,.378.239.378.563s-.2.571-.378.571m.47-3.068h-20.22c-.208,0-.439-.262-.439-.64s.231-.64.439-.64H879.8c.216,0,.447.262.447.64s-.231.64-.447.64m-4.895,7.354a9.95,9.95,0,0,1-5.211,1.426c-2.929,0-6.113-1.233-7.6-3.893h15.209a6.936,6.936,0,0,1-2.4,2.467m6.575-14.7-1.357,2.883a2.107,2.107,0,0,1-1.935,1.11H861.2a2.13,2.13,0,0,1-1.935-1.11l-1.357-2.875c.162.008.339.015.524.031h.016c.516.046,1.087.07,1.727.07h.324c2.4.077,5.635.115,9.1.115h.055c.019,0,.035.01.054.01s.032-.009.049-.01h.042c4.687,0,7.817-.031,9.913-.123.162,0,.316-.008.47-.015.2-.008.393-.015.578-.031.262-.016.5-.039.725-.054M868.9,543.466a13.057,13.057,0,0,1-1.688-1.4,10.846,10.846,0,0,1,1.711-1.634l0,0-.026,3.034h0M869,531.5a20.966,20.966,0,0,1-2.459-1.449,14.66,14.66,0,0,1,2.482-1.357l.005,0L869,531.505l0,0m.085-9.751a8.864,8.864,0,0,1-1.842-1.094,7.611,7.611,0,0,1,1.865-1.549l0,0-.023,2.648,0,0m1.157-8.656c.131.292.27.562.393.809a5.266,5.266,0,0,1,.57,1.388,3.41,3.41,0,0,1-.937.845Zm.1,11.276h0a10.53,10.53,0,0,1,1.3.709,4.462,4.462,0,0,1-1.284.915Zm.208,24.03-.013-1.513h0a13.591,13.591,0,0,1,1.172.964c-.293.162-.717.362-1.156.547h0m-.1-11.516-.022-2.515h0a5.163,5.163,0,0,1,1.457,1.125,8.571,8.571,0,0,1-1.434,1.388l0,0m-1.631,16.433h0A4.592,4.592,0,0,1,867.263,552a6.231,6.231,0,0,1,1.565-.894l.005,0Zm23.695-26.965a45.512,45.512,0,0,1-3.931,5.1c-2.32,2.7-4.51,5.25-5.674,9.913a30.4,30.4,0,0,0-.779,5.165,18.176,18.176,0,0,0,.7,4.463c.347,1.38.648,2.575.231,3.106-.216.277-.763.594-2.12.74l-.277.023h-.069c-.409.016-.871.031-1.372.054h-7.061a9.834,9.834,0,0,1-1.563-.623l-.034-3.932h0c1.981-.825,3.168-1.349,3.168-2.39,0-.955-1.047-1.8-3.219-3.351l-.047-5.416c2.149-1.717,3.266-2.7,3.266-3.69,0-1.172-1.233-2.089-3.322-3.253h0l-.036-4.208h0c1.75-.871,3.161-1.789,3.161-3.145,0-1.025-1.209-1.618-3.211-2.565l-.035-4.009h0c1.549-1.033,2.713-1.873,2.713-2.945a5.1,5.1,0,0,0-.74-2.3,14.437,14.437,0,0,1-1.65-7.369.909.909,0,1,0-1.819,0,19.411,19.411,0,0,0,.4,4.156l-.06,7.03c-.077.054-.162.108-.231.154-1.881,1.233-3.515,2.3-3.515,3.677,0,1.172,1.4,1.927,3.685,3.022h0l-.025,2.913c-.254.123-.485.231-.686.324-2.1.987-3.762,1.773-3.762,3.106,0,1.064,1.187,1.75,3.669,3.068.216.116.455.247.717.386h0l-.039,4.53h0c-2.313,1.842-3.615,2.945-3.615,4.016,0,.994,1.149,1.873,3.546,3.577l.005,0-.029,3.419c-2.073.879-3.321,1.565-3.422,2.674-.093,1.126,1.118,2.243,2.529,3.137h-7.778c-.5-.023-.964-.038-1.372-.054h-.07l-.277-.023c-1.357-.146-1.9-.463-2.12-.74-.416-.532-.115-1.727.232-3.106a17.894,17.894,0,0,0,.7-4.533,30.8,30.8,0,0,0-.756-5c-1.148-4.725-3.353-7.292-5.689-10.014a43.311,43.311,0,0,1-3.931-5.1c-4.139-6.437-8.826-13.729-8.826-25.315.046-20.142,16.018-29.524,30.834-29.716h.478c15.078,0,31.366,9.242,31.944,29.709,0,11.6-4.687,18.893-8.819,25.323" transform="translate(-862.762 -503.276)" fill="#ffb93e"/>
        </g>
      </g>
      <g id="Group_31457" data-name="Group 31457" transform="translate(0 -0.001)">
        <g id="Group_31456" data-name="Group 31456" clip-path="url(#clip-path-2)">
          <path id="Path_13179" data-name="Path 13179" d="M1586.446,205.12a24.9,24.9,0,1,1-24.9-25.189,25.044,25.044,0,0,1,24.9,25.189" transform="translate(-1065.953 -124.814)" fill="rgba(255,154,51,0.3)"/>
          <path id="Path_13180" data-name="Path 13180" d="M1593.729,218.317a19.137,19.137,0,1,1-19.135-19.362,19.25,19.25,0,0,1,19.135,19.362" transform="translate(-1078.996 -138.011)" fill="#fff"/>
          <path id="Path_13181" data-name="Path 13181" d="M1616.479,227.851h-1.3a.276.276,0,0,1-.276-.276v-12.6a.276.276,0,0,1,.276-.276h1.3a.275.275,0,0,1,.276.276v12.6a.275.275,0,0,1-.276.276" transform="translate(-1120.228 -148.935)" fill="#2b478b"/>
          <path id="Path_13182" data-name="Path 13182" d="M1618.1,261.756v-1.3a.276.276,0,0,1,.276-.276h10.007a.276.276,0,0,1,.275.276v1.3a.276.276,0,0,1-.275.276h-10.007a.276.276,0,0,1-.276-.276" transform="translate(-1122.452 -180.478)" fill="#2b478b"/>
          <path id="Path_13183" data-name="Path 13183" d="M1614.407,255.785a2.784,2.784,0,1,1-2.784-2.817,2.8,2.8,0,0,1,2.784,2.817" transform="translate(-1116.026 -175.479)" fill="#2b478b"/>
          <g id="Group_31455" data-name="Group 31455" transform="translate(591.576 385.04)" opacity="0.68">
            <g id="Group_31454" data-name="Group 31454">
              <g id="Group_31453" data-name="Group 31453" clip-path="url(#clip-path-8)">
                <path id="Path_13184" data-name="Path 13184" d="M1979.357,1288.4h-47.325a.773.773,0,0,1-.773-.773v-29.86a.773.773,0,0,1,.773-.773h47.325a.773.773,0,0,1,.773.773v29.86a.773.773,0,0,1-.773.773" transform="translate(-1931.26 -1256.998)" fill="#ff9a33"/>
                <path id="Path_13185" data-name="Path 13185" d="M1986.426,1281.742H1951.7a.232.232,0,0,1,0-.464h34.726a.232.232,0,0,1,0,.464" transform="translate(-1945.279 -1273.841)" fill="#fff"/>
                <path id="Path_13186" data-name="Path 13186" d="M1965.906,1312.188H1951.7a.232.232,0,1,1,0-.464h14.206a.232.232,0,0,1,0,.464" transform="translate(-1945.278 -1294.961)" fill="#fff"/>
                <path id="Path_13187" data-name="Path 13187" d="M1965.906,1330.34H1951.7a.232.232,0,1,1,0-.464h14.206a.232.232,0,0,1,0,.464" transform="translate(-1945.278 -1307.552)" fill="#fff"/>
                <path id="Path_13188" data-name="Path 13188" d="M1969.853,1293.833H1951.7a.232.232,0,0,1,0-.464h18.152a.232.232,0,0,1,0,.464" transform="translate(-1945.279 -1282.228)" fill="#fff"/>
                <path id="Path_13189" data-name="Path 13189" d="M2034.906,1293.924h-12.643c-.2,0-.371-.124-.371-.277s.166-.278.371-.278h12.643c.2,0,.371.124.371.278s-.167.277-.371.277" transform="translate(-1994.13 -1282.228)" fill="#fff"/>
                <path id="Path_13190" data-name="Path 13190" d="M2026.112,1314.359H2009.73a.613.613,0,0,1-.613-.613v-9.586a.613.613,0,0,1,.613-.613h16.382a.613.613,0,0,1,.613.613v9.586a.613.613,0,0,1-.613.613" transform="translate(-1985.268 -1289.288)" fill="#fff"/>
                <path id="Path_13191" data-name="Path 13191" d="M2015.168,1317.192l.964-2.892a.322.322,0,0,1,.542-.116l2.683,2.906a.322.322,0,0,0,.539-.107l1.608-4.365a.321.321,0,0,1,.554-.088l3.624,4.589a.322.322,0,0,0,.525-.028l3.166-5.013" transform="translate(-1989.466 -1295.206)" fill="none" stroke="#ff9a33" stroke-linecap="round" stroke-width="2"/>
                <path id="Path_13192" data-name="Path 13192" d="M2058.294,1311.9l1.136-.284v1.136" transform="translate(-2019.381 -1294.885)" fill="none" stroke="#ff9a33" stroke-linecap="round" stroke-width="2"/>
              </g>
            </g>
          </g>
          <path id="Path_13193" data-name="Path 13193" d="M348.106,463.457H297.151a2.132,2.132,0,0,0-2.132,2.131v37.151a2.132,2.132,0,0,0,2.132,2.131h50.955a2.132,2.132,0,0,0,2.132-2.131V465.588a2.131,2.131,0,0,0-2.132-2.131" transform="translate(-204.65 -321.491)" fill="#fff"/>
          <path id="Path_13194" data-name="Path 13194" d="M316.489,481.981l5.587,2.933a1.1,1.1,0,0,0,1.057-.015l24.809-14.6,1.867-1.1a1.182,1.182,0,0,1,.429-.151v-3.458a2.132,2.132,0,0,0-2.132-2.131H297.151a2.131,2.131,0,0,0-2.131,2.131v5.476l1.346.685Z" transform="translate(-204.651 -321.491)" fill="#dadada"/>
          <path id="Path_13195" data-name="Path 13195" d="M295.019,497.04V523.4l19.743-16.32Z" transform="translate(-204.65 -344.788)" fill="#dadada"/>
          <path id="Path_13196" data-name="Path 13196" d="M430.058,518.951v-28.53l-19.971,11.755Z" transform="translate(-284.471 -340.196)" fill="#dadada"/>
          <path id="Path_13197" data-name="Path 13197" d="M348.849,550.436l-20.767-17.444-3.758,2.212a3.542,3.542,0,0,1-1.74.461,3.476,3.476,0,0,1-1.619-.4L317.03,533.2a1.2,1.2,0,0,1-.189.2l-20.618,17.043a1.174,1.174,0,0,1-1.2.183v.348a2.131,2.131,0,0,0,2.132,2.131h50.955a2.132,2.132,0,0,0,2.132-2.131v-.439a1.176,1.176,0,0,1-1.388-.1" transform="translate(-204.65 -369.727)" fill="#dadada"/>
          <path id="Path_13198" data-name="Path 13198" d="M350.237,481.7a1.185,1.185,0,0,0-.429.151l-1.867,1.1-24.808,14.6a1.1,1.1,0,0,1-1.057.015l-5.588-2.933-20.123-10.232-1.347-.685v2.68l19.743,10.039L295.019,512.76v2.289a1.2,1.2,0,0,0,.444.09,1.19,1.19,0,0,0,.76-.274l20.618-17.043a1.179,1.179,0,0,0,.189-.2l3.936,2.066a3.476,3.476,0,0,0,1.619.4,3.544,3.544,0,0,0,1.74-.461l3.758-2.212,20.767,17.444a1.175,1.175,0,0,0,1.388.1V512.9l-19.971-16.775,19.971-11.755Z" transform="translate(-204.65 -334.149)" fill="#fff"/>
        </g>
      </g>
    </g>
  </g>
</svg>
