<svg xmlns="http://www.w3.org/2000/svg" width="55.104" height="55.104" viewBox="0 0 55.104 55.104">
  <g id="idea_5_" data-name="idea (5)" transform="translate(0 -0.001)">
    <path id="Path_13419" data-name="Path 13419" d="M51.962,279.17a6.036,6.036,0,1,0-6.036,6.036A6.043,6.043,0,0,0,51.962,279.17Z" transform="translate(-35.595 -243.794)" fill="#138707"/>
    <path id="Path_13420" data-name="Path 13420" d="M373.3,279.17a6.036,6.036,0,1,0-6.036,6.036A6.043,6.043,0,0,0,373.3,279.17Z" transform="translate(-322.487 -243.794)" fill="#138707"/>
    <path id="Path_13421" data-name="Path 13421" d="M212.629,279.17a6.036,6.036,0,1,0-6.036,6.036A6.043,6.043,0,0,0,212.629,279.17Z" transform="translate(-179.041 -243.794)" fill="#ff9a33"/>
    <path id="Path_13422" data-name="Path 13422" d="M16.805,386.816A10.356,10.356,0,0,0,0,394.86v1.857a1.626,1.626,0,0,0,1.626,1.626H14.44a4.854,4.854,0,0,1-.28-1.626V394.86a13.509,13.509,0,0,1,2.645-8.044Z" transform="translate(0 -343.237)" fill="#138707"/>
    <path id="Path_13423" data-name="Path 13423" d="M363.4,384.534a10.281,10.281,0,0,0-6.474,2.287,13.509,13.509,0,0,1,2.645,8.044v1.857a4.853,4.853,0,0,1-.28,1.626H372.1a1.626,1.626,0,0,0,1.625-1.626v-1.857A10.343,10.343,0,0,0,363.4,384.534Z" transform="translate(-318.623 -343.242)" fill="#138707"/>
    <path id="Path_13424" data-name="Path 13424" d="M171,384.534a10.343,10.343,0,0,0-10.331,10.331v1.857a1.626,1.626,0,0,0,1.626,1.626H179.7a1.626,1.626,0,0,0,1.626-1.626v-1.857A10.343,10.343,0,0,0,171,384.534Z" transform="translate(-143.447 -343.242)" fill="#ff9a33"/>
    <path id="Path_13425" data-name="Path 13425" d="M115.243.477a1.625,1.625,0,1,0-2.3,2.3l1.741,1.741a1.625,1.625,0,0,0,2.3-2.3Z" transform="translate(-100.372 0)" fill="#ff9a33"/>
    <path id="Path_13426" data-name="Path 13426" d="M114.685,129.01l-1.741,1.741a1.625,1.625,0,0,0,2.3,2.3l1.741-1.741a1.625,1.625,0,1,0-2.3-2.3Z" transform="translate(-100.372 -114.709)" fill="#ff9a33"/>
    <path id="Path_13427" data-name="Path 13427" d="M84.216,75.551h2.462a1.626,1.626,0,0,0,0-3.251H84.216A1.626,1.626,0,0,0,84.216,75.551Z" transform="translate(-73.716 -64.464)" fill="#ff9a33"/>
    <path id="Path_13428" data-name="Path 13428" d="M356.242,4.517l1.741-1.741a1.625,1.625,0,1,0-2.3-2.3l-1.741,1.741a1.626,1.626,0,1,0,2.3,2.3Z" transform="translate(-315.451 -0.001)" fill="#ff9a33"/>
    <path id="Path_13429" data-name="Path 13429" d="M355.685,133.05a1.625,1.625,0,0,0,2.3-2.3l-1.741-1.741a1.625,1.625,0,1,0-2.3,2.3Z" transform="translate(-315.451 -114.709)" fill="#ff9a33"/>
    <path id="Path_13430" data-name="Path 13430" d="M376.76,73.925a1.626,1.626,0,0,0,1.625,1.626h2.462a1.626,1.626,0,0,0,0-3.251h-2.462A1.626,1.626,0,0,0,376.76,73.925Z" transform="translate(-336.243 -64.464)" fill="#ff9a33"/>
    <path id="Path_13431" data-name="Path 13431" d="M208.868,189.832a5.108,5.108,0,0,0,10.215,0V189.6H208.868Z" transform="translate(-186.424 -169.898)" fill="#138707"/>
    <path id="Path_13432" data-name="Path 13432" d="M180.242,17.3h10.215a4.08,4.08,0,0,1,1.114-2.785,8.589,8.589,0,1,0-12.444,0,4.08,4.08,0,0,1,1.114,2.785Z" transform="translate(-157.797)" fill="#138707"/>
  </g>
</svg>
