<svg xmlns="http://www.w3.org/2000/svg" width="49.07" height="55.362" viewBox="0 0 49.07 55.362">
  <g id="stockbrokers" transform="translate(-4.204 -0.639)">
    <g id="Group_31582" data-name="Group 31582" transform="translate(4.845 0.639)">
      <path id="Path_13411" data-name="Path 13411" d="M15,.639A10.071,10.071,0,1,0,25.072,10.71,10.082,10.082,0,0,0,15,.639Zm1.565,15.63v.305a1.629,1.629,0,0,1-3.259,0v-.006a8.231,8.231,0,0,1-1.419-.3,1.252,1.252,0,0,1-.829-1.49l.072-.282a1.22,1.22,0,0,1,.6-.792,1.271,1.271,0,0,1,1.015-.1,5.3,5.3,0,0,0,.984.225,4.471,4.471,0,0,0,.709.057c.5,0,1.339-.1,1.339-.8,0-.384-.254-.7-1.552-1.16-.238-.082-.468-.177-.7-.282C11.849,10.9,11,9.809,11,8.393a3.418,3.418,0,0,1,2.308-3.225V4.846a1.629,1.629,0,0,1,3.259,0v.013a6.245,6.245,0,0,1,.884.17,1.264,1.264,0,0,1,.892,1.554l-.072.245a1.266,1.266,0,0,1-1.561.864c-.173-.048-.371-.1-.579-.132a4.421,4.421,0,0,0-.713-.055c-.728,0-1.2.267-1.2.679s.359.646,1.747,1.162l.377.147C18.155,10.269,19,11.358,19,12.92a3.5,3.5,0,0,1-2.437,3.349Z" transform="translate(-4.93 -0.639)" fill="#ff9a33"/>
      <path id="Path_13412" data-name="Path 13412" d="M46.328.639A10.071,10.071,0,1,0,56.4,10.71,10.082,10.082,0,0,0,46.328.639Zm1.565,15.63v.305a1.629,1.629,0,0,1-3.259,0v-.006a8.231,8.231,0,0,1-1.419-.3,1.252,1.252,0,0,1-.829-1.49l.072-.282a1.22,1.22,0,0,1,.6-.792,1.271,1.271,0,0,1,1.015-.1,5.3,5.3,0,0,0,.984.225,4.471,4.471,0,0,0,.709.057c.5,0,1.339-.1,1.339-.8,0-.384-.254-.7-1.552-1.16-.238-.082-.468-.177-.7-.282-1.674-.743-2.525-1.837-2.525-3.254a3.418,3.418,0,0,1,2.308-3.225V4.845a1.629,1.629,0,0,1,3.259,0v.013a6.245,6.245,0,0,1,.884.17,1.264,1.264,0,0,1,.892,1.554l-.072.245a1.266,1.266,0,0,1-1.561.864c-.173-.048-.371-.1-.579-.132a4.421,4.421,0,0,0-.713-.055c-.728,0-1.2.267-1.2.679s.359.646,1.747,1.162l.377.147c1.815.777,2.662,1.866,2.662,3.428A3.5,3.5,0,0,1,47.893,16.269Z" transform="translate(-8.612 -0.639)" fill="#ff9a33"/>
    </g>
    <path id="Path_13413" data-name="Path 13413" d="M24.287,34.145a12.971,12.971,0,0,0,3.3,7.182l.652.72a3.191,3.191,0,0,0,2.339,1.032h1a3.17,3.17,0,0,0,2.345-1.032l.66-.72a12.979,12.979,0,0,0,2.8-4.876,13.3,13.3,0,0,0,.5-2.305,12.458,12.458,0,0,0,.094-1.431V30.45a6.523,6.523,0,0,0-.268-1.852,6.9,6.9,0,0,0-13.528,1.892v2.071a1.113,1.113,0,0,0,.007.153A11.052,11.052,0,0,0,24.287,34.145Z" transform="translate(-2.347 -2.697)" fill="#ff9a33"/>
    <path id="Path_13414" data-name="Path 13414" d="M40.277,46.147l-3.328-1.066a15.894,15.894,0,0,1-1.333,1.67l-.671.732a5.91,5.91,0,0,1-4.362,1.92H29.57a5.926,5.926,0,0,1-4.354-1.919l-.011-.013-.655-.722a15.639,15.639,0,0,1-1.332-1.671l-3.335,1.068a6.5,6.5,0,0,0-4.227,5.793v7.615A1.665,1.665,0,0,0,17.32,61.22H42.84A1.665,1.665,0,0,0,44.5,59.555V51.94a6.5,6.5,0,0,0-4.228-5.793Z" transform="translate(-1.341 -5.219)" fill="#ff9a33"/>
    <path id="Path_13415" data-name="Path 13415" d="M41.993,34.756a9.593,9.593,0,0,0,2.446,5.314l.483.532a2.36,2.36,0,0,0,1.731.764h.739a2.345,2.345,0,0,0,1.735-.764l.488-.532a9.6,9.6,0,0,0,2.075-3.609,9.8,9.8,0,0,0,.37-1.706,9.4,9.4,0,0,0,.07-1.06V32.02a4.85,4.85,0,0,0-.2-1.37,5.1,5.1,0,0,0-10.012,1.4v1.533a.807.807,0,0,0,.005.113A8.318,8.318,0,0,0,41.993,34.756Z" transform="translate(-4.43 -3.089)" fill="#138707"/>
    <path id="Path_13416" data-name="Path 13416" d="M10.591,34.756a9.593,9.593,0,0,0,2.446,5.314l.483.532a2.36,2.36,0,0,0,1.731.764h.739a2.345,2.345,0,0,0,1.735-.764l.488-.532a9.6,9.6,0,0,0,2.075-3.609,9.8,9.8,0,0,0,.37-1.706,9.4,9.4,0,0,0,.07-1.06V32.02a4.851,4.851,0,0,0-.2-1.37,5.1,5.1,0,0,0-10.012,1.4v1.533a.807.807,0,0,0,.005.113A8.318,8.318,0,0,0,10.591,34.756Z" transform="translate(-0.739 -3.089)" fill="#138707"/>
    <g id="Group_31583" data-name="Group 31583" transform="translate(41.499 37.891)">
      <path id="Path_13417" data-name="Path 13417" d="M55.106,43.637l-2.464-.788a11.725,11.725,0,0,1-.987,1.235l-.5.542a4.375,4.375,0,0,1-3.23,1.421h-.75a4.332,4.332,0,0,1-.718-.065,7.641,7.641,0,0,1,2.849,5.7v3.112H57a1.232,1.232,0,0,0,1.233-1.232V47.926a4.805,4.805,0,0,0-3.129-4.288Z" transform="translate(-46.46 -42.849)" fill="#138707"/>
    </g>
    <g id="Group_31584" data-name="Group 31584" transform="translate(4.204 37.89)">
      <path id="Path_13418" data-name="Path 13418" d="M13.129,51.679a7.64,7.64,0,0,1,2.85-5.7,4.377,4.377,0,0,1-.722.066h-.75a4.388,4.388,0,0,1-3.224-1.42l-.009-.01-.485-.534A11.638,11.638,0,0,1,9.8,42.847l-2.469.79A4.806,4.806,0,0,0,4.2,47.924v5.635A1.232,1.232,0,0,0,5.436,54.79h7.692V51.679Z" transform="translate(-4.204 -42.847)" fill="#138707"/>
    </g>
  </g>
</svg>
