<svg xmlns="http://www.w3.org/2000/svg" width="76.201" height="55.09" viewBox="0 0 76.201 55.09">
  <g id="Group_31589" data-name="Group 31589" transform="translate(-359.366 -2698.827)">
    <g id="hand-shake_1_" data-name="hand-shake (1)" transform="translate(359.366 2698.827)">
      <path id="Path_13433" data-name="Path 13433" d="M76.2,75.488V98.555s-4.937.973-5.954,1.1-4.2,1.156-6.509-1.063C60.178,95.18,47.526,82.6,47.526,82.6s-2.181-2.14-5.684-.291C38.627,84,33.861,86.486,31.87,87.453a4.581,4.581,0,0,1-6.882-3.6c0-1.878,1.172-3.152,2.847-4.089,4.539-2.752,14.107-8.122,18.092-10.239,2.422-1.288,4.167-1.4,7.493,1.4,4.1,3.444,7.74,6.584,7.74,6.584a3.787,3.787,0,0,0,3.085.593C68.9,77.124,76.2,75.488,76.2,75.488ZM25.845,114.573A4.029,4.029,0,0,0,21.012,109a4.156,4.156,0,0,0-.877-4.1,4.252,4.252,0,0,0-4.066-1.028,4.153,4.153,0,0,0-.88-4.1,4.591,4.591,0,0,0-6.428.169c-1.879,1.8-3.083,5.07-1.406,6.994s3.6.749,5.065.415c-.408,1.455-1.631,2.809-.125,4.714s3.6.75,5.067.418c-.409,1.45-1.579,2.939-.131,4.705s3.854.828,5.434.337c-.61,1.568-1.915,3.258-.238,5.153s5.545,1.025,7.435-.778a4.508,4.508,0,0,0,.408-6.372A4.293,4.293,0,0,0,25.845,114.573Zm34.493-12c-13.665-13.665-7.238-7.235-14.592-14.6a4.791,4.791,0,0,0-5.123-.922c-2.045.9-4.677,2.117-6.658,3.05a10.987,10.987,0,0,1-4.479,1.49A7.6,7.6,0,0,1,25.47,77.522C28.507,75.42,35.5,71.7,35.5,71.7A8.773,8.773,0,0,0,28.7,69C24.04,69,14.3,75.387,14.3,75.387a7.614,7.614,0,0,1-6.7.176L0,72.918v26.4s2.168.628,4.117,1.423a8.679,8.679,0,0,1,2.135-3.371c3.232-3.079,8.59-3.111,11.531-.083a7.276,7.276,0,0,1,1.82,3.232,7.364,7.364,0,0,1,3.121,1.9,7.261,7.261,0,0,1,1.823,3.226,7.424,7.424,0,0,1,5.048,5.44,7.47,7.47,0,0,1,3.256,1.952,7.68,7.68,0,0,1,2.015,6.654.012.012,0,0,1,.012.005c.029.038,1.095,1.226,1.76,1.9a3.35,3.35,0,0,0,4.737-4.737c-.047-.047-4.7-4.914-4.326-5.292s6.3,5.794,6.411,5.907a3.348,3.348,0,0,0,4.734-4.734c-.064-.061-.331-.317-.43-.418,0,0-5.878-5.237-5.431-5.684S50.085,113,50.1,113a3.306,3.306,0,0,0,4.763-4.571c-.023-.07-5.565-5.861-5.132-6.3s5.922,5.2,5.934,5.217a3.35,3.35,0,1,0,4.734-4.74C60.378,102.6,60.355,102.584,60.337,102.572Z" transform="translate(0 -68.657)" fill="#ff9a33"/>
    </g>
    <g id="hand-shake_1_2" data-name="hand-shake (1)" transform="translate(359.366 2699.175)">
      <path id="Path_13433-2" data-name="Path 13433" d="M60.337,102.73C46.672,89.065,53.1,95.5,45.746,88.126a4.791,4.791,0,0,0-5.123-.922c-2.045.9-4.677,2.117-6.658,3.05a10.987,10.987,0,0,1-4.479,1.49A7.6,7.6,0,0,1,25.47,77.68c3.037-2.1,10.026-5.819,10.026-5.819a8.773,8.773,0,0,0-6.794-2.7c-4.663,0-14.405,6.382-14.405,6.382a7.614,7.614,0,0,1-6.7.176L0,73.077v26.4s2.168.628,4.117,1.423a8.679,8.679,0,0,1,2.135-3.371c3.232-3.079,8.59-3.111,11.531-.083a7.276,7.276,0,0,1,1.82,3.232,7.364,7.364,0,0,1,3.121,1.9,7.261,7.261,0,0,1,1.823,3.226,7.424,7.424,0,0,1,5.048,5.44,7.47,7.47,0,0,1,3.256,1.952,7.68,7.68,0,0,1,2.015,6.654.012.012,0,0,1,.012.005c.029.038,1.095,1.226,1.76,1.9a3.35,3.35,0,0,0,4.737-4.737c-.047-.047-4.7-4.914-4.326-5.292s6.3,5.794,6.411,5.907a3.348,3.348,0,0,0,4.734-4.734c-.064-.061-.331-.317-.43-.418,0,0-5.878-5.237-5.431-5.684s7.755,6.364,7.767,6.364a3.306,3.306,0,0,0,4.763-4.571c-.023-.07-5.565-5.861-5.132-6.3s5.922,5.2,5.934,5.217a3.35,3.35,0,1,0,4.734-4.74C60.378,102.754,60.355,102.742,60.337,102.73Z" transform="translate(0 -69.163)" fill="#138707"/>
    </g>
  </g>
</svg>
