<svg xmlns="http://www.w3.org/2000/svg" xmlns:xlink="http://www.w3.org/1999/xlink" width="269.862" height="66" viewBox="0 0 269.862 66">
  <defs>
    <linearGradient id="linear-gradient" x1="0.146" y1="0.146" x2="0.854" y2="0.854" gradientUnits="objectBoundingBox">
      <stop offset="0" stop-color="#fae100"/>
      <stop offset="0.15" stop-color="#fcb720"/>
      <stop offset="0.3" stop-color="#ff7950"/>
      <stop offset="0.5" stop-color="#ff1c74"/>
      <stop offset="1" stop-color="#6c1cd1"/>
    </linearGradient>
  </defs>
  <g id="Group_32099" data-name="Group 32099" transform="translate(-123 -584.5)">
    <g id="facebook_6_" data-name="facebook (6)" transform="translate(123 584.5)">
      <path id="Path_12570" data-name="Path 12570" d="M65.613,32.8a32.813,32.813,0,0,1-27.68,32.406V42.287h7.644L47.031,32.8h-9.1V26.651c0-2.595,1.271-5.123,5.346-5.123h4.137V13.455a50.463,50.463,0,0,0-7.344-.641c-7.493,0-12.391,4.541-12.391,12.763V32.8h-8.33v9.483h8.33V65.211A32.807,32.807,0,1,1,65.613,32.8Z" transform="translate(0)" fill="#1877f2"/>
      <path id="Path_12571" data-name="Path 12571" d="M177.475,129.755l1.468-9.573h-9.185v-6.212c0-2.619,1.283-5.172,5.4-5.172h4.176v-8.15a50.928,50.928,0,0,0-7.413-.647c-7.565,0-12.509,4.585-12.509,12.885v7.3H151v9.573h8.409V152.9a33.467,33.467,0,0,0,10.35,0V129.755Z" transform="translate(-131.787 -87.687)" fill="#fff"/>
    </g>
    <g id="linkedin" transform="translate(225.229 584.722)">
      <circle id="Ellipse_57" data-name="Ellipse 57" cx="33" cy="33" r="33" transform="translate(-0.229 -0.222)" fill="#007ab9"/>
      <g id="Group_30764" data-name="Group 30764" transform="translate(15.829 14.018)">
        <path id="Path_12572" data-name="Path 12572" d="M63.646,45.4V58.923H55.8V46.3c0-3.168-1.132-5.332-3.971-5.332a4.289,4.289,0,0,0-4.022,2.867,5.367,5.367,0,0,0-.26,1.911V58.922H39.709s.105-21.372,0-23.585h7.843V38.68c-.016.026-.038.052-.052.077h.052V38.68a7.786,7.786,0,0,1,7.067-3.9c5.159,0,9.027,3.371,9.027,10.614ZM31.506,23.969c-2.683,0-4.438,1.761-4.438,4.074A4.061,4.061,0,0,0,31.4,32.119h.051a4.088,4.088,0,1,0,.052-8.15ZM27.534,58.923h7.839V35.338H27.534Z" transform="translate(-27.068 -23.969)" fill="#f1f2f2"/>
      </g>
    </g>
    <g id="Layer_2" data-name="Layer 2" transform="translate(327 584.5)">
      <g id="Circle" transform="translate(0 0)">
        <g id="_03.Instagram" data-name="03.Instagram">
          <rect id="Background" width="65.613" height="65.613" rx="32.806" transform="translate(0.249 0.257)" fill="url(#linear-gradient)"/>
          <g id="Group_30765" data-name="Group 30765">
            <path id="Shade" d="M57.731,11.267A117.421,117.421,0,0,1,37.654,37.658,117.577,117.577,0,0,1,11.276,57.722q-.828-.719-1.608-1.5A32.932,32.932,0,1,1,56.235,9.643q.775.785,1.5,1.624Z" transform="translate(-0.016 0)" fill="#fff" opacity="0.1"/>
            <g id="Icon" transform="translate(15.594 15.601)">
              <path id="Path_12573" data-name="Path 12573" d="M61.134,36h-15.6A9.534,9.534,0,0,0,36,45.534v15.6a9.534,9.534,0,0,0,9.534,9.534h15.6a9.534,9.534,0,0,0,9.534-9.534v-15.6A9.534,9.534,0,0,0,61.134,36Zm6.5,23.765a7.87,7.87,0,0,1-7.87,7.87H46.9a7.87,7.87,0,0,1-7.87-7.87V46.9a7.87,7.87,0,0,1,7.87-7.87H59.765a7.87,7.87,0,0,1,7.87,7.87Z" transform="translate(-36 -36)" fill="#fff"/>
              <path id="Path_12574" data-name="Path 12574" d="M70.774,58.03l-.082-.082-.069-.069a8.736,8.736,0,0,0-6.171-2.548,8.892,8.892,0,0,0-8.832,8.957,8.992,8.992,0,0,0,2.6,6.331,8.749,8.749,0,0,0,6.249,2.6A8.983,8.983,0,0,0,70.774,58.03ZM64.451,70.163a5.876,5.876,0,1,1,5.794-5.876,5.876,5.876,0,0,1-5.794,5.876Z" transform="translate(-47.117 -46.953)" fill="#fff"/>
              <path id="Path_12575" data-name="Path 12575" d="M96.94,51.6a2.115,2.115,0,0,1-2.1,2.132,2.084,2.084,0,0,1-1.482-.62,2.136,2.136,0,0,1,1.486-3.636,2.089,2.089,0,0,1,1.339.486l.043.043a1.323,1.323,0,0,1,.191.191l.048.052A2.132,2.132,0,0,1,96.94,51.6Z" transform="translate(-68.153 -43.638)" fill="#fff"/>
            </g>
          </g>
        </g>
      </g>
    </g>
  </g>
</svg>
